Coordinates
version=1
nRows=5
nColumns=46
inDegrees=yes

Units are S.I. units (second, meters, Newtons, ...)
Angles are in degrees.

endheader
time	pelvis_tilt	pelvis_list	pelvis_rotation	pelvis_tx	pelvis_ty	pelvis_tz	bb_angle	bb_tx	bb_ty	bb_tz	hip_flexion_r	hip_adduction_r	hip_rotation_r	knee_angle_r	knee_angle_r_beta	ankle_angle_r	subtalar_angle_r	mtp_angle_r	crank_angle_r	hip_flexion_l	hip_adduction_l	hip_rotation_l	knee_angle_l	knee_angle_l_beta	ankle_angle_l	subtalar_angle_l	mtp_angle_l	crank_angle_l	lumbar_extension	lumbar_bending	lumbar_rotation	arm_flex_r	arm_add_r	arm_rot_r	elbow_flex_r	pro_sup_r	wrist_flex_r	wrist_dev_r	arm_flex_l	arm_add_l	arm_rot_l	elbow_flex_l	pro_sup_l	wrist_flex_l	wrist_dev_l
      7.50500000	    -12.51764903	     -6.09430984	     -2.98085571	      0.18668106	      1.06646261	     -0.32230189	      0.00000000	      0.50000000	      0.00000000	      0.25000000	     92.52815681	     -0.51016633	      1.33520091	    114.02492409	      1.99011035	     -2.87149927	    -13.93722186	      0.00000000	      0.00000000	     39.14010561	    -14.06489471	     -6.34076613	     36.65292034	      0.63971414	    -23.79054922	      1.53552537	      0.00000000	      0.00000000	    -70.08144252	     -0.21040331	      7.38595060	     89.36112820	    -20.97697501	     27.63957599	     65.11334144	     39.07437586	      0.00000000	      0.00000000	     87.99129074	    -16.67031556	     27.52465598	     72.92060651	     36.24546110	      0.00000000	      0.00000000
      7.51000000	    -12.78479176	     -6.34890620	     -2.78741132	      0.18615347	      1.06745796	     -0.32290873	      0.00000000	      0.50000000	      0.00000000	      0.25000000	     92.56479100	     -0.86888267	      0.94535076	    112.81000137	      1.96890595	     -1.46252061	    -13.15294354	      0.00000000	      0.00000000	     39.56804334	    -14.17669305	     -5.80223509	     37.87376320	      0.66102187	    -23.57112143	      1.06925549	      0.00000000	      0.00000000	    -70.24977985	      0.46508995	      7.23941855	     89.35795353	    -19.61801543	     26.06341108	     66.18107278	     38.64335976	      0.00000000	      0.00000000	     87.76183843	    -18.00581715	     27.10135723	     74.55859709	     36.83866628	      0.00000000	      0.00000000
      7.51500000	    -13.02246080	     -6.35141731	     -2.97529935	      0.18612618	      1.06892842	     -0.32350815	      0.00000000	      0.50000000	      0.00000000	      0.25000000	     92.33015894	     -0.92527099	      0.70438863	    111.38528438	      1.94403995	     -0.02642797	    -13.06076317	      0.00000000	      0.00000000	     39.78129005	    -14.23496183	     -5.73361593	     39.10083844	      0.68243837	    -23.39557365	      0.27651945	      0.00000000	      0.00000000	    -70.33268022	      0.56305259	      7.32264928	     89.40356665	    -19.40762281	     26.01366161	     66.38846370	     38.62095867	      0.00000000	      0.00000000	     87.82111498	    -18.25215060	     26.99091956	     74.55768433	     36.86584823	      0.00000000	      0.00000000
      7.52000000	    -13.31724518	     -6.55369471	     -2.92360084	      0.18575137	      1.07002013	     -0.32412845	      0.00000000	      0.50000000	      0.00000000	      0.25000000	     91.94515309	     -1.13362470	      0.37727827	    109.82337586	      1.91677950	      1.93164454	    -12.06998134	      0.00000000	      0.00000000	     40.40610816	    -14.32353507	     -5.15650165	     40.69659050	      0.71028950	    -23.19551741	     -0.52558388	      0.00000000	      0.00000000	    -70.35693469	      0.98692782	      7.45058795	     89.43493726	    -19.00221624	     25.75104652	     66.91336689	     38.55964051	      0.00000000	      0.00000000	     87.75105902	    -18.72597198	     26.82643806	     74.78566058	     36.97144075	      0.00000000	      0.00000000
      7.52500000	    -13.44416026	     -6.31516304	     -2.99498517	      0.18559278	      1.07139465	     -0.32443655	      0.00000000	      0.50000000	      0.00000000	      0.25000000	     91.25654631	     -1.16281217	      0.42230140	    108.10141934	      1.88672569	      3.66335147	    -12.24935199	      0.00000000	      0.00000000	     40.73919070	    -14.09915406	     -4.90449835	     42.26242770	      0.73761851	    -23.01107838	     -1.12857074	      0.00000000	      0.00000000	    -70.49488988	      0.92309297	      7.19716967	     89.45296976	    -18.93303219	     25.64264049	     67.10910165	     38.54789388	      0.00000000	      0.00000000	     87.82881035	    -18.84622213	     26.76575402	     74.85624546	     36.99905769	      0.00000000	      0.00000000
